HIERARCHY
ROOT Hips
{
	OFFSET	0.00	0.00	0.00
	CHANNELS 6 Xposition Yposition Zposition Zrotation Xrotation Yrotation
	JOINT LeftHip
	{
		OFFSET	 3.430000	 0.000000	 0.000000
		CHANNELS 3 Zrotation Xrotation Yrotation
		JOINT LeftKnee
		{
			OFFSET	 0.000000	-18.469999	 0.000000
			CHANNELS 3 Zrotation Xrotation Yrotation
			JOINT LeftAnkle
			{
				OFFSET	 0.000000	-17.950001	 0.000000
				CHANNELS 3 Zrotation Xrotation Yrotation
				End Site 
				{
					OFFSET	 0.000000	-3.119996	 0.000000
				}
			}
		}
	}
	JOINT RightHip
	{
		OFFSET	-3.430000	 0.000000	 0.000000
		CHANNELS 3 Zrotation Xrotation Yrotation
		JOINT RightKnee
		{
			OFFSET	 0.000000	-18.809999	 0.000000
			CHANNELS 3 Zrotation Xrotation Yrotation
			JOINT RightAnkle
			{
				OFFSET	 0.000000	-17.570000	 0.000000
				CHANNELS 3 Zrotation Xrotation Yrotation
				End Site 
				{
					OFFSET	 0.000000	-3.250000	 0.000000
				}
			}
		}
	}
	JOINT Chest
	{
		OFFSET	 0.000000	 4.570000	 0.000000
		CHANNELS 3 Zrotation Xrotation Yrotation
		JOINT LeftCollar
		{
			OFFSET	 1.060000	 15.330000	 1.760000
			CHANNELS 3 Zrotation Xrotation Yrotation
			JOINT LeftShoulder
			{
				OFFSET	 5.810000	 0.000000	 0.000000
				CHANNELS 3 Zrotation Xrotation Yrotation
				JOINT LeftElbow
				{
					OFFSET	 0.000000	-12.080000	 0.000000
					CHANNELS 3 Zrotation Xrotation Yrotation
					JOINT LeftWrist
					{
						OFFSET	 0.000000	-9.820000	 0.000000
						CHANNELS 3 Zrotation Xrotation Yrotation
						End Site 
						{
							OFFSET	 0.000000	-7.369996	 0.000000
						}
					}
				}
			}
		}
		JOINT RightCollar
		{
			OFFSET	-1.060000	 15.330000	 1.760000
			CHANNELS 3 Zrotation Xrotation Yrotation
			JOINT RightShoulder
			{
				OFFSET	-6.060000	 0.000000	 0.000000
				CHANNELS 3 Zrotation Xrotation Yrotation
				JOINT RightElbow
				{
					OFFSET	 0.000000	-11.900000	 0.000000
					CHANNELS 3 Zrotation Xrotation Yrotation
					JOINT RightWrist
					{
						OFFSET	 0.000000	-9.520000	 0.000000
						CHANNELS 3 Zrotation Xrotation Yrotation
						End Site 
						{
							OFFSET	 0.000000	-7.140012	 0.000000
						}
					}
				}
			}
		}
		JOINT Neck
		{
			OFFSET	 0.000000	 17.620001	 0.000000
			CHANNELS 3 Zrotation Xrotation Yrotation
			JOINT Head
			{
				OFFSET	 0.000000	 5.190000	 0.000000
				CHANNELS 3 Zrotation Xrotation Yrotation
				End Site 
				{
					OFFSET	 0.000000	 4.140008	 0.000000
				}
			}
		}
	}
}

MOTION
Frames: 23
Frame Time: 0.033333
-40.947 0.7308 -47.9973 -14.277 3.87396 86.0919 -2.70737 -57.6901 -3.48443 1.48472 40.4716 0.457853 -6.91224 6.14971 -8.72198 -23.009 5.87796 -41.6818 0.784777 28.5077 3.40858 20.4921 -34.0614 -3.5556 5.86922 26.9749 3.48639 0 0 0 31.7769 -72.5219 10.1046 -44.4115 -36.9065 -34.0658 59.6506 -38.9098 12.81 0 0 0 -41.8747 -62.5692 -14.8954 29.1958 -43.243 32.1329 -72.48 -51.7208 14.074 0 0 0 -6.24736 -33.2886 11.9774 
-40.7109 0.5826 -48.0776 -14.6983 3.94543 86.5061 -3.0822 -58.1726 -3.1261 1.60896 41.089 0.0379467 -6.53123 5.66198 -9.17032 -23.3544 5.67509 -42.2756 0.364042 29.8819 4.05872 20.5343 -34.232 -3.31652 4.07852 28.6829 4.37251 0 0 0 28.0928 -80.6608 9.4577 -32.5165 -30.4248 -25.017 58.93 -38.6187 13.7488 0 0 0 -50.2286 -71.5341 -24.4673 19.3257 -33.5 25.2742 -64.3662 -50.1126 15.2987 0 0 0 -5.49758 -35.1968 11.3122 
-40.5728 0.4847 -48.153 -15.2591 3.95036 86.9495 -3.36913 -58.8784 -2.86492 1.75655 41.8248 -0.227862 -6.2334 5.18675 -9.73434 -23.7946 5.15357 -42.8583 0.104939 31.3858 4.5108 20.8315 -34.1397 -2.67673 2.7592 30.1479 4.97457 0 0 0 16.8295 -88.044 -0.770568 -23.2049 -23.5659 -17.5958 59.1846 -37.4185 14.8291 0 0 0 -72.2132 -79.4463 -47.9253 11.9857 -22.9803 20.5733 -57.7744 -47.7287 15.3599 0 0 0 -5.01872 -36.6956 10.8479 
-40.4423 0.4244 -48.2233 -15.8226 3.90983 87.1922 -3.59459 -59.601 -2.71152 1.80766 42.4064 -0.297544 -5.90598 4.87981 -10.1366 -24.3066 4.2532 -43.1045 -0.0778433 33.0645 4.8256 21.7382 -34.0567 -1.17989 1.52013 31.5086 5.59464 0 0 0 -135.88 -85.765 -153.412 -17.0663 -18.043 -12.3968 60.4729 -35.0955 14.8006 0 0 0 -126.947 -82.0127 -103.96 6.6796 -12.9017 17.1919 -52.2838 -44.5129 14.3385 0 0 0 -4.60062 -38.0302 10.5112 
-40.392 0.3717 -48.261 -16.3161 3.82632 87.4434 -3.84495 -60.1882 -2.79253 1.7988 42.7313 -0.298281 -5.65112 4.74677 -10.3947 -24.9164 3.123 -43.1884 -0.0729123 34.7812 4.92761 22.7032 -33.904 0.64376 0.477199 32.6882 6.0797 0 0 0 -139.434 -80.7891 -156.943 -12.985 -13.5954 -8.52415 62.0136 -32.7906 15.2255 0 0 0 -162.08 -77.942 -139.622 3.81283 -5.06877 15.0695 -49.0019 -41.6266 11.6857 0 0 0 -4.18791 -39.4616 10.3709 
-40.3267 0.3792 -48.2785 -16.8093 3.84399 87.6151 -3.98852 -60.7347 -2.75685 1.78817 42.9416 -0.254492 -5.47969 4.64632 -10.6632 -25.4614 2.0272 -43.7786 0.145756 36.1091 4.84384 23.8527 -33.4769 2.70427 -0.609259 33.706 6.76327 0 0 0 -142.244 -78.4006 -160.283 -11.4986 -12.2142 -6.87925 62.5522 -32.6083 15.0532 0 0 0 -169.514 -74.3957 -147.4 3.34621 -2.26411 14.0541 -49.601 -40.4422 8.34716 0 0 0 -3.89032 -40.9295 10.1754 
-40.279 0.3842 -48.281 -17.2882 3.88424 87.8391 -4.07509 -61.2336 -2.91594 1.7466 42.767 -0.183212 -5.5422 4.83915 -10.7641 -25.6801 0.994209 -45.2156 0.27784 36.7377 4.75974 24.4799 -32.1823 5.1809 -1.66026 34.3202 7.49333 0 0 0 -144.147 -77.0299 -163.874 -11.1527 -11.84 -6.77612 60.4922 -33.9847 12.8482 0 0 0 -172.287 -71.7707 -150.597 3.25561 -1.3716 13.5573 -51.8121 -40.0857 6.51481 0 0 0 -3.7109 -42.0787 9.92481 
-40.2991 0.4294 -48.2634 -17.5782 3.85452 88.1204 -4.14989 -61.5406 -3.15798 1.67395 42.419 -0.047817 -5.60155 5.17874 -10.9249 -25.8281 0.0263841 -46.3158 0.655438 37.091 4.43498 24.507 -31.0739 6.73817 -1.58121 34.4272 7.15835 0 0 0 -145.538 -77.0017 -167.25 -10.5917 -11.1807 -6.88091 59.3658 -33.4021 11.5021 0 0 0 -174.343 -70.853 -152.561 3.34377 -0.915113 13.6232 -53.5823 -38.0795 5.297 0 0 0 -3.77308 -42.3442 10.1213 
-40.4121 0.5098 -48.2082 -17.6158 3.73509 88.3434 -4.14193 -61.6078 -3.4609 1.66848 42.0016 0.0335071 -5.73468 5.58063 -11 -25.7821 -0.713098 -47.3374 1.03656 37.2033 4.2004 24.1175 -30.1123 7.86087 -1.43032 34.5736 6.73286 0 0 0 -147.515 -77.1831 -171.08 -10.033 -10.7231 -6.30452 58.3924 -32.4016 10.3995 0 0 0 -176.141 -70.5547 -154.136 3.48772 -0.78653 13.5069 -54.881 -36.0387 4.5218 0 0 0 -3.67254 -42.5621 10.3802 
-40.5929 0.6303 -48.1203 -17.3806 3.69499 88.2408 -3.78876 -61.3587 -3.59102 1.54984 41.3488 0.254695 -5.99641 6.13579 -10.8209 -25.6906 -1.25597 -47.9986 1.35682 37.0003 4.17259 23.1868 -29.2754 8.36916 -1.40255 34.6723 6.37584 0 0 0 -150.65 -77.5452 -174.101 -9.93188 -10.547 -6.3027 57.1629 -31.951 8.66954 0 0 0 -177.317 -71.2487 -154.373 3.92535 -1.67768 13.343 -55.0409 -34.9879 4.62001 0 0 0 -3.26978 -42.6898 10.9872 
-40.8063 0.7283 -48.0199 -16.9985 3.65078 88.0561 -3.26096 -60.9364 -3.59623 1.48241 40.6358 0.394143 -6.36552 6.70467 -10.5511 -25.4644 -1.57318 -48.5146 1.67303 36.4915 4.26873 21.8497 -29.0343 7.69927 -1.25684 34.6066 5.92807 0 0 0 -154.713 -78.1968 -177.898 -10.1579 -10.8766 -6.63338 56.318 -31.6095 7.37434 0 0 0 -178.091 -72.3627 -153.932 4.50514 -2.94789 13.4681 -54.8281 -34.9157 4.9186 0 0 0 -2.88759 -42.6021 11.7172 
-41.0072 0.8714 -47.9144 -16.5282 3.66205 87.7602 -2.64247 -60.4004 -3.51528 1.44108 39.8104 0.525279 -6.79626 7.34727 -10.2114 -25.0661 -1.70127 -48.8172 1.95689 35.7934 4.32586 20.4889 -28.8494 6.67982 -0.960754 34.4371 5.38346 0 0 0 -160.058 -79.132 177.178 -10.6326 -11.3589 -7.22189 55.6122 -31.202 6.32698 0 0 0 -178.624 -73.9428 -153.222 5.27054 -4.69506 13.5769 -54.8981 -35.2251 5.11101 0 0 0 -2.60856 -42.3369 12.5446 
-41.2458 0.9844 -47.7989 -15.7962 3.571 87.2551 -1.68938 -59.5362 -3.2779 1.3408 38.7026 0.673761 -7.27695 8.20322 -9.70212 -24.4586 -1.57913 -48.5894 2.13848 34.9681 4.32414 19.1832 -28.6973 5.69617 -0.618799 34.1273 4.86441 0 0 0 -168.675 -80.6692 169.032 -11.5558 -12.3195 -7.95021 55.2474 -30.7626 5.7942 0 0 0 -178.183 -76.2457 -151.773 6.23306 -7.00807 13.6352 -55.1964 -35.5563 5.25199 0 0 0 -2.25404 -41.8225 13.5296 
-41.507 1.125 -47.6733 -14.9473 3.48652 86.7206 -0.752015 -58.5339 -2.825 1.31418 37.8709 0.867258 -7.64435 8.78803 -9.44974 -23.9624 -1.29573 -47.6954 2.21038 34.1742 4.45791 18.4226 -29.3127 4.31505 -0.131726 33.695 4.23231 0 0 0 176.581 -82.4041 154.906 -12.7792 -13.6755 -8.79008 55.1488 -30.3144 5.73786 0 0 0 -176.524 -79.0006 -149.154 7.30775 -9.61495 13.7331 -55.6504 -36.0277 5.33422 0 0 0 -1.91987 -41.1776 14.6119 
-41.7355 1.2556 -47.5553 -13.9983 3.3679 86.0729 0.338742 -57.3713 -2.26491 1.29878 37.0408 1.04298 -8.06546 9.3316 -9.11858 -23.372 -0.869839 -46.4939 2.31058 33.2751 4.48511 17.7403 -29.7708 3.12704 0.39649 33.3373 3.77808 0 0 0 152.907 -83.6491 131.984 -14.5108 -15.6436 -9.78877 55.1729 -29.7988 5.48782 0 0 0 -170.968 -81.9405 -142.658 8.52866 -12.5442 13.9326 -56.2097 -36.5526 5.45512 0 0 0 -1.73356 -40.5937 15.5624 
-41.9389 1.3335 -47.4724 -13.0189 3.26119 85.4688 1.40047 -56.1403 -1.6627 1.24088 36.1634 1.2819 -8.44911 9.89002 -8.87269 -22.8802 -0.425313 -45.1072 2.43154 32.4469 4.38214 17.1647 -30.1185 2.07632 0.824756 32.7411 3.34918 0 0 0 119.91 -83.6531 99.8655 -16.6739 -18.0033 -11.0787 55.3651 -29.3931 5.25858 0 0 0 -155.039 -84.9378 -125.869 9.89622 -15.7221 14.2919 -56.8488 -37.1564 5.52466 0 0 0 -1.45549 -39.8673 16.5221 
-42.0368 1.4239 -47.3971 -12.2279 3.19724 84.8468 2.35386 -55.0085 -1.05697 1.21931 35.2871 1.49074 -8.79614 10.4049 -8.63892 -22.3968 -0.0457342 -43.9271 2.43958 31.6339 4.28525 16.8531 -30.4817 1.30615 1.24966 32.1624 3.03699 0 0 0 92.2511 -81.844 73.1251 -19.2364 -20.7067 -12.5894 55.6861 -29.2547 5.09206 0 0 0 -114.485 -86.5307 -84.6213 11.272 -18.7476 14.8892 -57.6305 -37.9498 5.49657 0 0 0 -1.3504 -39.2103 17.25 
-42.1323 1.4967 -47.3444 -11.426 3.15149 84.1574 3.33716 -53.8178 -0.386718 1.17175 34.3496 1.76739 -9.12015 10.9535 -8.41927 -21.9383 0.454885 -42.9143 2.33035 30.7774 4.22442 16.5112 -30.0996 1.00584 1.52278 31.4077 2.90808 0 0 0 74.0116 -78.5337 56.0339 -22.6747 -23.6465 -14.7244 56.2122 -29.3107 5.02599 0 0 0 -64.8026 -84.939 -34.6657 12.9979 -22.2286 15.9079 -58.3247 -38.7652 5.59628 0 0 0 -1.20631 -38.41 17.8872 
-42.2051 1.557 -47.3067 -10.5902 3.11293 83.2784 4.43564 -52.3616 0.542682 1.13546 33.268 2.08071 -9.4084 11.5024 -8.23806 -21.5444 1.10997 -41.8564 2.15145 29.6957 4.28259 16.3019 -29.5223 0.796523 1.70158 30.4564 3.04359 0 0 0 60.2124 -73.5078 43.6555 -27.2459 -27.3466 -17.7119 56.6983 -30.0012 5.02404 0 0 0 -44.9355 -80.9016 -15.0464 15.3625 -26.2245 17.4085 -58.7194 -39.6364 5.51101 0 0 0 -1.09949 -37.4683 18.3239 
-42.2403 1.6323 -47.2941 -9.8998 3.17984 82.3371 5.38642 -50.9434 1.54355 1.15402 32.314 2.39533 -9.65871 11.8746 -8.1888 -21.272 1.67637 -40.7928 1.99042 28.7015 4.33987 16.1446 -29.0373 0.598993 1.80562 29.4087 3.36215 0 0 0 51.2296 -68.0441 36.2085 -32.3693 -30.8456 -21.2236 57.3425 -30.9836 5.03792 0 0 0 -37.6069 -76.3984 -8.29677 17.9501 -29.9429 19.1604 -59.0878 -40.3583 5.17836 0 0 0 -1.11035 -36.6099 18.5373 
-42.2001 1.6926 -47.2992 -9.2366 3.23265 81.2618 6.31946 -49.4306 2.48304 1.10722 31.2065 2.77415 -9.89983 12.2759 -8.00776 -20.9764 2.2436 -39.6214 1.87126 27.5125 4.31563 16.0113 -28.4106 0.454319 1.84174 28.3019 3.88988 0 0 0 43.9017 -61.7814 30.3678 -38.1505 -34.3216 -25.3822 57.7111 -32.2685 4.8516 0 0 0 -33.4383 -71.4333 -4.9164 20.8289 -33.5187 21.1888 -59.2076 -40.9705 4.79456 0 0 0 -1.15469 -35.6012 18.6259 
-42.185 1.7277 -47.2967 -8.55178 3.32629 80.174 7.08538 -47.8848 3.31928 1.08905 30.0757 3.15907 -10.155 12.6755 -7.82711 -20.7112 2.9047 -38.3974 1.72506 26.26 4.31025 15.9212 -27.8238 0.275671 1.74515 26.7867 4.55059 0 0 0 37.6903 -54.8934 25.8364 -44.2082 -36.9232 -29.6374 57.9333 -34.155 4.70451 0 0 0 -30.1247 -65.4122 -2.68968 24.1012 -36.9447 23.5248 -59.0518 -42.0206 4.44349 0 0 0 -1.17111 -34.1785 18.6478 
-42.1047 1.7805 -47.3042 -7.82598 3.41942 78.9369 7.93473 -46.2866 4.31832 1.06727 28.9344 3.45031 -10.4224 13.0181 -7.56472 -20.477 3.56485 -37.0664 1.59975 24.9708 4.27871 15.852 -27.2308 0.136532 1.70632 25.2742 5.3478 0 0 0 32.4491 -47.4308 22.2013 -50.176 -39.0039 -33.9147 58.0591 -36.1405 4.61444 0 0 0 -27.5681 -59.2634 -1.22294 27.4998 -39.9745 26.0172 -58.7663 -42.8492 4.1445 0 0 0 -1.25985 -32.5501 18.6163 
